<?xml version="1.0" encoding="UTF-8" standalone="no"?>
<!DOCTYPE svg PUBLIC "-//W3C//DTD SVG 1.1//EN"
 "http://www.w3.org/Graphics/SVG/1.1/DTD/svg11.dtd">
<!-- Generated by graphviz version 2.40.1 (20161225.0304)
 -->
<!-- Title: G Pages: 1 -->
<svg width="698pt" height="273pt"
 viewBox="0.00 0.00 698.42 273.00" xmlns="http://www.w3.org/2000/svg" xmlns:xlink="http://www.w3.org/1999/xlink">
<g id="graph0" class="graph" transform="scale(1 1) rotate(0) translate(4 269)">
<title>G</title>
<polygon fill="#ffffff" stroke="transparent" points="-4,4 -4,-269 694.4162,-269 694.4162,4 -4,4"/>
<g id="clust1" class="cluster">
<title>cluster_Global</title>
<path fill="none" stroke="#c0c0c0" d="M538.0012,-8C538.0012,-8 670.4162,-8 670.4162,-8 676.4162,-8 682.4162,-14 682.4162,-20 682.4162,-20 682.4162,-245 682.4162,-245 682.4162,-251 676.4162,-257 670.4162,-257 670.4162,-257 538.0012,-257 538.0012,-257 532.0012,-257 526.0012,-251 526.0012,-245 526.0012,-245 526.0012,-20 526.0012,-20 526.0012,-14 532.0012,-8 538.0012,-8"/>
<text text-anchor="middle" x="604.2087" y="-244.2" font-family="Times,serif" font-size="11.00" fill="#c0c0c0">Global</text>
</g>
<g id="clust2" class="cluster">
<title>cluster_\Findforsikring</title>
<path fill="none" stroke="#c0c0c0" d="M546.0012,-16C546.0012,-16 662.4162,-16 662.4162,-16 668.4162,-16 674.4162,-22 674.4162,-28 674.4162,-28 674.4162,-218 674.4162,-218 674.4162,-224 668.4162,-230 662.4162,-230 662.4162,-230 546.0012,-230 546.0012,-230 540.0012,-230 534.0012,-224 534.0012,-218 534.0012,-218 534.0012,-28 534.0012,-28 534.0012,-22 540.0012,-16 546.0012,-16"/>
<text text-anchor="middle" x="604.2087" y="-217.2" font-family="Times,serif" font-size="11.00" fill="#c0c0c0">Findforsikring</text>
</g>
<g id="clust3" class="cluster">
<title>cluster_\Findforsikring\Support</title>
<path fill="none" stroke="#c0c0c0" d="M554.0012,-24C554.0012,-24 654.4162,-24 654.4162,-24 660.4162,-24 666.4162,-30 666.4162,-36 666.4162,-36 666.4162,-191 666.4162,-191 666.4162,-197 660.4162,-203 654.4162,-203 654.4162,-203 554.0012,-203 554.0012,-203 548.0012,-203 542.0012,-197 542.0012,-191 542.0012,-191 542.0012,-36 542.0012,-36 542.0012,-30 548.0012,-24 554.0012,-24"/>
<text text-anchor="middle" x="604.2087" y="-190.2" font-family="Times,serif" font-size="11.00" fill="#c0c0c0">Support</text>
</g>
<!-- \\Findforsikring\\Support\\DateTime -->
<g id="node1" class="node">
<title>\\Findforsikring\\Support\\DateTime</title>
<polygon fill="none" stroke="#000000" points="638.5176,-176 569.8999,-176 569.8999,-140 638.5176,-140 638.5176,-176"/>
<text text-anchor="middle" x="604.2087" y="-154.7" font-family="Courier,monospace" font-size="11.00" fill="#000000">DateTime</text>
</g>
<!-- \\Carbon\\Carbon -->
<g id="node4" class="node">
<title>\\Carbon\\Carbon</title>
<ellipse fill="none" stroke="#000000" cx="239.0006" cy="-158" rx="67.177" ry="18"/>
<text text-anchor="middle" x="239.0006" y="-153.8" font-family="Times,serif" font-size="14.00" fill="#c0c0c0">\Carbon\Carbon</text>
</g>
<!-- \\Findforsikring\\Support\\DateTime&#45;&gt;\\Carbon\\Carbon -->
<g id="edge1" class="edge">
<title>\\Findforsikring\\Support\\DateTime&#45;&gt;\\Carbon\\Carbon</title>
<path fill="none" stroke="#000000" d="M569.8508,-158C512.2426,-158 394.798,-158 316.4799,-158"/>
<polygon fill="none" stroke="#000000" points="316.1765,-154.5001 306.1765,-158 316.1764,-161.5001 316.1765,-154.5001"/>
</g>
<!-- \\Findforsikring\\Support\\SMS -->
<g id="node2" class="node">
<title>\\Findforsikring\\Support\\SMS</title>
<polygon fill="none" stroke="#000000" points="631.2087,-122 577.2087,-122 577.2087,-86 631.2087,-86 631.2087,-122"/>
<text text-anchor="middle" x="604.2087" y="-100.7" font-family="Courier,monospace" font-size="11.00" fill="#000000">SMS</text>
</g>
<!-- \\Findforsikring\\Support\\VehicleService -->
<g id="node3" class="node">
<title>\\Findforsikring\\Support\\VehicleService</title>
<polygon fill="none" stroke="#000000" points="658.6246,-68 549.7929,-68 549.7929,-32 658.6246,-32 658.6246,-68"/>
<text text-anchor="middle" x="604.2087" y="-46.7" font-family="Courier,monospace" font-size="11.00" fill="#000000">VehicleService</text>
</g>
<!-- \\Kameli\\NummerpladeApi\\Client -->
<g id="node5" class="node">
<title>\\Kameli\\NummerpladeApi\\Client</title>
<ellipse fill="none" stroke="#000000" cx="239.0006" cy="-50" rx="239.0012" ry="18"/>
<text text-anchor="middle" x="239.0006" y="-45.8" font-family="Times,serif" font-size="14.00" fill="#c0c0c0">\Kameli\Kameli\NummerpladeApi\ClientummerpladeApi\Client</text>
</g>
<!-- \\Findforsikring\\Support\\VehicleService&#45;&gt;\\Kameli\\NummerpladeApi\\Client -->
<g id="edge2" class="edge">
<title>\\Findforsikring\\Support\\VehicleService&#45;&gt;\\Kameli\\NummerpladeApi\\Client</title>
<path fill="none" stroke="#000000" d="M549.9277,-50C532.0996,-50 510.9716,-50 488.2478,-50"/>
<polygon fill="none" stroke="#000000" points="488.0604,-46.5001 478.0604,-50 488.0603,-53.5001 488.0604,-46.5001"/>
</g>
</g>
</svg>
