<?xml version="1.0" encoding="UTF-8" standalone="no"?>
<!DOCTYPE svg PUBLIC "-//W3C//DTD SVG 1.1//EN"
 "http://www.w3.org/Graphics/SVG/1.1/DTD/svg11.dtd">
<!-- Generated by graphviz version 2.36.0 (20140111.2315)
 -->
<!-- Title: G Pages: 1 -->
<svg width="706pt" height="438pt"
 viewBox="0.00 0.00 706.00 438.00" xmlns="http://www.w3.org/2000/svg" xmlns:xlink="http://www.w3.org/1999/xlink">
<g id="graph0" class="graph" transform="scale(1 1) rotate(0) translate(4 434)">
<title>G</title>
<polygon fill="white" stroke="none" points="-4,4 -4,-434 702,-434 702,4 -4,4"/>
<g id="clust1" class="cluster"><title>cluster_Global</title>
<path fill="none" stroke="gray" d="M542,-8C542,-8 678,-8 678,-8 684,-8 690,-14 690,-20 690,-20 690,-410 690,-410 690,-416 684,-422 678,-422 678,-422 542,-422 542,-422 536,-422 530,-416 530,-410 530,-410 530,-20 530,-20 530,-14 536,-8 542,-8"/>
<text text-anchor="middle" x="610" y="-409.2" font-family="Times,serif" font-size="11.00" fill="gray">Global</text>
</g>
<g id="clust2" class="cluster"><title>cluster_\Findforsikring</title>
<path fill="none" stroke="gray" d="M550,-16C550,-16 670,-16 670,-16 676,-16 682,-22 682,-28 682,-28 682,-382 682,-382 682,-388 676,-394 670,-394 670,-394 550,-394 550,-394 544,-394 538,-388 538,-382 538,-382 538,-28 538,-28 538,-22 544,-16 550,-16"/>
<text text-anchor="middle" x="610" y="-381.2" font-family="Times,serif" font-size="11.00" fill="gray">Findforsikring</text>
</g>
<g id="clust3" class="cluster"><title>cluster_\Findforsikring\Support</title>
<path fill="none" stroke="gray" d="M558,-24C558,-24 662,-24 662,-24 668,-24 674,-30 674,-36 674,-36 674,-354 674,-354 674,-360 668,-366 662,-366 662,-366 558,-366 558,-366 552,-366 546,-360 546,-354 546,-354 546,-36 546,-36 546,-30 552,-24 558,-24"/>
<text text-anchor="middle" x="610" y="-353.2" font-family="Times,serif" font-size="11.00" fill="gray">Support</text>
</g>
<!-- \\Findforsikring\\Support\\Converters -->
<g id="node1" class="node"><title>\\Findforsikring\\Support\\Converters</title>
<polygon fill="none" stroke="black" points="652,-338 568,-338 568,-302 652,-302 652,-338"/>
<text text-anchor="middle" x="610" y="-317.2" font-family="Courier,monospace" font-size="11.00">Converters</text>
</g>
<!-- \\Findforsikring\\Support\\DateTime -->
<g id="node2" class="node"><title>\\Findforsikring\\Support\\DateTime</title>
<polygon fill="none" stroke="black" points="645.5,-284 574.5,-284 574.5,-248 645.5,-248 645.5,-284"/>
<text text-anchor="middle" x="610" y="-263.2" font-family="Courier,monospace" font-size="11.00">DateTime</text>
</g>
<!-- \\Carbon\\Carbon -->
<g id="node7" class="node"><title>\\Carbon\\Carbon</title>
<ellipse fill="none" stroke="black" cx="241" cy="-266" rx="67.6881" ry="18"/>
<text text-anchor="middle" x="241" y="-262.3" font-family="Times,serif" font-size="14.00" fill="gray">\Carbon\Carbon</text>
</g>
<!-- \\Findforsikring\\Support\\DateTime&#45;&gt;\\Carbon\\Carbon -->
<g id="edge1" class="edge"><title>\\Findforsikring\\Support\\DateTime&#45;&gt;\\Carbon\\Carbon</title>
<path fill="none" stroke="black" d="M574.474,-266C516.412,-266 397.865,-266 319.164,-266"/>
<polygon fill="none" stroke="black" points="318.814,-262.5 308.813,-266 318.813,-269.5 318.814,-262.5"/>
</g>
<!-- \\Findforsikring\\Support\\Number -->
<g id="node3" class="node"><title>\\Findforsikring\\Support\\Number</title>
<polygon fill="none" stroke="black" points="638.5,-230 581.5,-230 581.5,-194 638.5,-194 638.5,-230"/>
<text text-anchor="middle" x="610" y="-209.2" font-family="Courier,monospace" font-size="11.00">Number</text>
</g>
<!-- \\Findforsikring\\Support\\SMS -->
<g id="node4" class="node"><title>\\Findforsikring\\Support\\SMS</title>
<polygon fill="none" stroke="black" points="637,-176 583,-176 583,-140 637,-140 637,-176"/>
<text text-anchor="middle" x="610" y="-155.2" font-family="Courier,monospace" font-size="11.00">SMS</text>
</g>
<!-- \\Findforsikring\\Support\\Validator -->
<g id="node5" class="node"><title>\\Findforsikring\\Support\\Validator</title>
<polygon fill="none" stroke="black" points="648.5,-122 571.5,-122 571.5,-86 648.5,-86 648.5,-122"/>
<text text-anchor="middle" x="610" y="-101.2" font-family="Courier,monospace" font-size="11.00">Validator</text>
</g>
<!-- \\Findforsikring\\Support\\VehicleService -->
<g id="node6" class="node"><title>\\Findforsikring\\Support\\VehicleService</title>
<polygon fill="none" stroke="black" points="665.5,-68 554.5,-68 554.5,-32 665.5,-32 665.5,-68"/>
<text text-anchor="middle" x="610" y="-47.2" font-family="Courier,monospace" font-size="11.00">VehicleService</text>
</g>
<!-- \\Kameli\\NummerpladeApi\\Client -->
<g id="node8" class="node"><title>\\Kameli\\NummerpladeApi\\Client</title>
<ellipse fill="none" stroke="black" cx="241" cy="-50" rx="241.257" ry="18"/>
<text text-anchor="middle" x="241" y="-46.3" font-family="Times,serif" font-size="14.00" fill="gray">\Kameli\Kameli\NummerpladeApi\ClientummerpladeApi\Client</text>
</g>
<!-- \\Findforsikring\\Support\\VehicleService&#45;&gt;\\Kameli\\NummerpladeApi\\Client -->
<g id="edge2" class="edge"><title>\\Findforsikring\\Support\\VehicleService&#45;&gt;\\Kameli\\NummerpladeApi\\Client</title>
<path fill="none" stroke="black" d="M554.453,-50C536.537,-50 515.305,-50 492.47,-50"/>
<polygon fill="none" stroke="black" points="492.233,-46.5001 482.233,-50 492.233,-53.5001 492.233,-46.5001"/>
</g>
</g>
</svg>
